<svg class="railroad-diagram" height="142" viewBox="0 0 443.5 142" width="443.5" xmlns="http://www.w3.org/2000/svg">
<g transform="translate(.5 .5)">
<style>/* <![CDATA[ */
	svg.railroad-diagram {
		background-color:hsl(30,20%,95%);
	}
	svg.railroad-diagram path {
		stroke-width:3;
		stroke:black;
		fill:rgba(0,0,0,0);
	}
	svg.railroad-diagram text {
		font:bold 14px monospace;
		text-anchor:middle;
	}
	svg.railroad-diagram text.label{
		text-anchor:start;
	}
	svg.railroad-diagram text.comment{
		font:italic 12px monospace;
	}
	svg.railroad-diagram rect{
		stroke-width:3;
		stroke:black;
		fill:hsl(120,100%,90%);
	}
	svg.railroad-diagram rect.group-box {
		stroke: gray;
		stroke-dasharray: 10 5;
		fill: none;
	}

/* ]]> */
</style><g>
<path d="M20 54v20m10 -20v20m-10 -10h20"></path></g><path d="M40 64h10"></path><g class="terminal ">
<path d="M50 64h0.0"></path><path d="M112.5 64h0.0"></path><rect height="22" rx="10" ry="10" width="62.5" x="50.0" y="53"></rect><text x="81.25" y="68">start</text></g><path d="M112.5 64h10"></path><path d="M122.5 64h10"></path><g>
<path d="M132.5 64h0.0"></path><path d="M393.5 64h0.0"></path><g class="terminal ">
<path d="M132.5 64h0.0"></path><path d="M186.5 64h0.0"></path><rect height="22" rx="10" ry="10" width="54.0" x="132.5" y="53"></rect><text x="159.5" y="68">&#91;^ &#93;</text></g><path d="M186.5 64h10"></path><path d="M196.5 64h10"></path><g>
<path d="M206.5 64h0.0"></path><path d="M393.5 64h0.0"></path><rect class="group-box" height="86" rx="10" ry="10" width="187.0" x="206.5" y="36"></rect><g>
<path d="M206.5 64h0.0"></path><path d="M393.5 64h0.0"></path><path d="M206.5 64h20"></path><g>
<path d="M226.5 64h0.0"></path><path d="M373.5 64h0.0"></path><g>
<path d="M226.5 64h0.0"></path><path d="M275.0 64h0.0"></path><path d="M226.5 64h10"></path><g class="terminal ">
<path d="M236.5 64h0.0"></path><path d="M265.0 64h0.0"></path><rect height="22" rx="10" ry="10" width="28.5" x="236.5" y="53"></rect><text x="250.75" y="68">a</text></g><path d="M265.0 64h10"></path><path d="M236.5 64a10 10 0 0 0 -10 10v0a10 10 0 0 0 10 10"></path><g>
<path d="M236.5 84h28.5"></path></g><path d="M265.0 84a10 10 0 0 0 10 -10v0a10 10 0 0 0 -10 -10"></path></g><path d="M275.0 64h10"></path><g>
<path d="M285.0 64h0.0"></path><path d="M373.5 64h0.0"></path><path d="M285.0 64a10 10 0 0 0 10 -10v0a10 10 0 0 1 10 -10"></path><g>
<path d="M305.0 44h48.5"></path></g><path d="M353.5 44a10 10 0 0 1 10 10v0a10 10 0 0 0 10 10"></path><path d="M285.0 64h20"></path><g>
<path d="M305.0 64h0.0"></path><path d="M353.5 64h0.0"></path><path d="M305.0 64h10"></path><g class="terminal ">
<path d="M315.0 64h0.0"></path><path d="M343.5 64h0.0"></path><rect height="22" rx="10" ry="10" width="28.5" x="315.0" y="53"></rect><text x="329.25" y="68">k</text></g><path d="M343.5 64h10"></path><path d="M315.0 64a10 10 0 0 0 -10 10v0a10 10 0 0 0 10 10"></path><g>
<path d="M315.0 84h28.5"></path></g><path d="M343.5 84a10 10 0 0 0 10 -10v0a10 10 0 0 0 -10 -10"></path></g><path d="M353.5 64h20"></path></g></g><path d="M373.5 64h20"></path><path d="M206.5 64a10 10 0 0 1 10 10v19a10 10 0 0 0 10 10"></path><g>
<path d="M226.5 103h30.75"></path><path d="M342.75 103h30.75"></path><path d="M257.25 103h20"></path><g class="terminal ">
<path d="M277.25 103h0.0"></path><path d="M322.75 103h0.0"></path><rect height="22" rx="10" ry="10" width="45.5" x="277.25" y="92"></rect><text x="300.0" y="107">a-c</text></g><path d="M322.75 103h20"></path></g><path d="M373.5 103a10 10 0 0 0 10 -10v-19a10 10 0 0 1 10 -10"></path></g><g class="non-terminal ">
<path d="M206.5 28h0.0"></path><path d="M223.5 28h0.0"></path><text class="comment" x="215.0" y="33">1</text></g></g></g><path d="M393.5 64h10"></path><path d="M 403.5 64 h 20 m -10 -10 v 20 m 10 -20 v 20"></path></g></svg>